<?xml version="1.0" encoding="UTF-8" standalone="no"?>
<svg
   xmlns:dc="http://purl.org/dc/elements/1.1/"
   xmlns:cc="http://creativecommons.org/ns#"
   xmlns:rdf="http://www.w3.org/1999/02/22-rdf-syntax-ns#"
   xmlns:svg="http://www.w3.org/2000/svg"
   xmlns="http://www.w3.org/2000/svg"
   xmlns:sodipodi="http://sodipodi.sourceforge.net/DTD/sodipodi-0.dtd"
   xmlns:inkscape="http://www.inkscape.org/namespaces/inkscape"
   height="200"
   width="200"
   inkscape:version="1.0 (4035a4fb49, 2020-05-01)"
   sodipodi:docname="portis-io-logo-vector.svg"
   xml:space="preserve"
   viewBox="0 0 200 200"
   y="0px"
   x="0px"
   id="layer"
   version="1.1"><metadata
   id="metadata63"><rdf:RDF><cc:Work
       rdf:about=""><dc:format>image/svg+xml</dc:format><dc:type
         rdf:resource="http://purl.org/dc/dcmitype/StillImage" /><dc:title></dc:title></cc:Work></rdf:RDF></metadata><defs
   id="defs61">
	
</defs><sodipodi:namedview
   inkscape:current-layer="Layer_1-2"
   inkscape:window-maximized="1"
   inkscape:window-y="-11"
   inkscape:window-x="-11"
   inkscape:cy="311.81582"
   inkscape:cx="161.38835"
   inkscape:zoom="2.2546012"
   showgrid="false"
   id="namedview59"
   inkscape:window-height="2126"
   inkscape:window-width="3840"
   inkscape:pageshadow="2"
   inkscape:pageopacity="0"
   guidetolerance="10"
   gridtolerance="10"
   objecttolerance="10"
   borderopacity="1"
   bordercolor="#666666"
   pagecolor="#ffffff" />
<style
   id="style2"
   type="text/css">
	.st0{fill:#133444;}
	.st1{fill:#C42370;}
	.st2{fill:#1C4D6B;}
	.st3{fill:#1D4259;}
	.st4{fill:#4B6B9A;}
	.st5{fill:#343535;}
	.st6{fill:#3E5578;}
	.st7{fill:#6DB2D8;}
	.st8{fill:#335F8A;}
	.st9{fill:#529BBA;}
</style>
<g
   transform="translate(-5.6360808,-23.646624)"
   id="Layer_1-2">
		<g
   transform="translate(25.953075,-201.09852)"
   id="Layer_2-2">
			<g
   id="Layer_1-2-2">
				<path
   class="st0"
   d="m 22.9,345.6 -0.9,-9.4 4.4,-1.9 54.2,-23.6 58.6,25.5 -22,45.5 -53.8,7.6 z"
   style="fill:#133444"
   id="polygon4" />
				<path
   class="st1"
   d="M 127.1,308.2 C 117.4,296.5 103.7,289 88.7,287 l -1,-0.1 c -4.7,-0.6 -9.4,-0.6 -14.1,0 l -1,0.1 c -15,2 -28.7,9.6 -38.4,21.2 v 0 l -2.4,4 -4.1,6.7 -3,4.9 v 0 c 0,0.1 -0.1,0.3 -0.2,0.4 v 0.1 l 6.5,3.9 41.5,24.6 8,4.7 v -58.7 l -8,3.6 v -8.8 l 8,-3.6 8,3.6 40.8,18.6 z"
   id="path6" />
				<path
   class="st2"
   d="m 141,350.8 c -0.1,19.3 -8.8,37.5 -23.7,49.7 -5.7,4.7 -12.1,8.2 -19.1,10.6 -5.7,1.9 -11.6,2.8 -17.6,2.8 -33.4,0 -60.5,-29.7 -60.5,-63.1 0,-4.9 0.6,-9.8 1.8,-14.6 l 58.6,34.7 58.6,-34.7 c 1.3,4.8 2,9.7 1.9,14.6 z"
   id="path8" />
				<path
   d="m 72.6,293.7 v -7.3 l 1,0.5 7,3.1 z"
   id="polygon10" />
				<path
   d="m 80.6,357.6 -8,-4.8 v -50.3 l 8,-3.7 z"
   id="polygon12" />
				<path
   class="st3"
   d="m 80.6,298.8 v 58.8 l 56.2,-33.2 z"
   style="fill:#1d4259"
   id="polygon14" />
				<path
   class="st4"
   d="m 80.6,231.2 v 67.6 l 56.2,25.6 z"
   style="fill:#4b6b9a"
   id="polygon16" />
				<path
   class="st5"
   d="m 80.6,298.8 v 58.7 l -8,-4.7 -48.1,-28.4 h -0.1 0.1 c 0,-0.1 0.1,-0.3 0.2,-0.4 v 0 l 7,-11.7 40.8,-18.5 v 8.7 z"
   id="path18" />
				<path
   class="st6"
   d="m 72.6,302.5 8,-3.7 v 58.8 l -8,-4.8 -48.1,-28.4 0.1,-0.1 z"
   style="fill:#3e5578"
   id="polygon20" />
				<path
   class="st7"
   d="m 80.6,231.2 v 67.6 l -56.1,25.6 z"
   style="fill:#6db2d8"
   id="polygon22" />
				<path
   class="st8"
   d="m 57.9,409.1 c 0.8,0.4 1.7,0.7 2.5,1 -0.8,-0.3 -1.6,-0.7 -2.5,-1 z"
   id="path24" />
				<path
   class="st8"
   d="m 60.4,410.1 c 0.8,0.3 1.7,0.7 2.6,0.9 -0.8,-0.2 -1.7,-0.5 -2.6,-0.9 z"
   id="path26" />
				<path
   class="st8"
   d="m 65.3,411.7 c 0.7,0.2 1.3,0.4 2,0.5 -0.7,-0.1 -1.4,-0.3 -2,-0.5 z"
   id="path28" />
				<path
   class="st7"
   d="m 22,336.2 58.6,34.7 c -0.8,5.3 -2.2,10.4 -4.2,15.4 -4.7,11.4 -14.1,23.4 -32.5,14.2 v 0 C 29,388.3 20.3,370.1 20.2,350.8 c 0,-4.9 0.6,-9.8 1.8,-14.6 z"
   id="path30" />
				<path
   class="st9"
   d="m 117.3,400.5 -0.2,0.1 c -0.3,0.2 -0.6,0.5 -0.9,0.7 l -0.1,0.1 c -0.3,0.3 -0.7,0.5 -1,0.8 -0.4,0.3 -0.7,0.6 -1.1,0.8 -0.4,0.2 -0.8,0.5 -1.1,0.8 -0.4,0.3 -0.7,0.4 -1,0.7 l -0.2,0.1 c -0.4,0.2 -0.7,0.4 -1,0.7 0,0 -0.1,0 -0.1,0.1 -0.4,0.2 -0.7,0.4 -1.1,0.7 -0.4,0.2 -0.8,0.4 -1.2,0.7 -0.4,0.2 -0.8,0.4 -1.2,0.6 v 0 l -1.2,0.6 c -0.4,0.2 -0.8,0.4 -1.2,0.6 -0.4,0.2 -0.8,0.4 -1.2,0.6 -0.8,0.4 -1.7,0.7 -2.5,1 -0.8,0.3 -1.7,0.6 -2.6,0.9 -0.3,0.1 -0.7,0.2 -1,0.3 l -1.2,0.4 c -0.7,0.2 -1.3,0.4 -2,0.5 -0.2,0.1 -0.5,0.1 -0.8,0.2 l -0.4,0.1 -1.1,0.2 c -0.4,0.1 -0.6,0.1 -1,0.2 -0.3,0.1 -0.6,0.1 -0.9,0.2 -0.3,0 -0.7,0.1 -1,0.2 -0.2,0 -0.3,0 -0.5,0.1 l -0.8,0.1 h -0.4 c -0.3,0 -0.6,0.1 -0.8,0.1 -0.3,0 -0.7,0.1 -1,0.1 -0.3,0 -0.5,0 -0.8,0 -0.3,0 -0.5,0 -0.7,0 v 0 c -0.3,0 -0.6,0 -0.8,0 -0.2,0 -0.8,0 -1.1,0 h -2.4 c -0.4,0 -0.8,0 -1.1,0 -0.3,0 -0.6,0 -0.8,0 v 0 c -0.2,0 -0.5,0 -0.7,0 -0.2,0 -0.5,0 -0.8,0 -0.3,0 -0.7,-0.1 -1,-0.1 -0.3,0 -0.6,0 -0.8,-0.1 h -0.4 c -0.2,0 -0.5,-0.1 -0.8,-0.1 -0.2,0 -0.3,0 -0.5,-0.1 -0.3,0 -0.7,-0.1 -1,-0.2 -0.3,0 -0.6,-0.1 -0.9,-0.2 -0.3,0 -0.7,-0.1 -1,-0.2 -0.3,-0.1 -0.7,-0.2 -1.1,-0.2 l -0.4,-0.1 c -0.3,0 -0.6,-0.1 -0.8,-0.1 -0.7,-0.2 -1.4,-0.4 -2,-0.5 l -1.2,-0.4 c -0.4,-0.1 -0.7,-0.2 -1,-0.3 -0.9,-0.3 -1.7,-0.6 -2.6,-0.9 -0.9,-0.3 -1.7,-0.7 -2.5,-1 -0.4,-0.2 -0.8,-0.4 -1.2,-0.6 l -1.2,-0.6 -1.2,-0.6 v 0 c -0.4,-0.2 -0.8,-0.4 -1.2,-0.6 -0.4,-0.2 -0.8,-0.4 -1.2,-0.7 -0.4,-0.2 -0.7,-0.4 -1.1,-0.7 l -0.1,-0.1 c -0.4,-0.2 -0.7,-0.4 -1,-0.7 l -0.2,-0.1 c -0.3,-0.2 -0.7,-0.4 -1,-0.7 -0.3,-0.2 -0.8,-0.5 -1.1,-0.8 -0.4,-0.3 -0.8,-0.5 -1.1,-0.8 l -1,-0.8 -0.1,-0.1 c -0.3,-0.2 -0.6,-0.5 -0.9,-0.7 l -0.2,-0.1 c 18.3,9.1 27.8,-2.9 32.5,-14.2 2,-4.9 3.4,-10.1 4.2,-15.4 0.8,5.3 2.2,10.4 4.2,15.4 4.1,11.2 13.6,23.2 31.9,14.1 z"
   id="path32" />
				<path
   class="st8"
   d="m 94,412.3 c 0.7,-0.2 1.4,-0.4 2,-0.5 -0.6,0.1 -1.3,0.3 -2,0.5 z"
   id="path34" />
				<path
   class="st8"
   d="m 98.2,411 c 0.9,-0.3 1.7,-0.6 2.6,-0.9 -0.8,0.4 -1.7,0.7 -2.6,0.9 z"
   id="path36" />
				<path
   class="st8"
   d="m 100.8,410.1 c 0.8,-0.3 1.7,-0.7 2.5,-1 -0.8,0.3 -1.6,0.7 -2.5,1 z"
   id="path38" />
				<path
   class="st4"
   d="m 141,350.8 c -0.1,19.3 -8.8,37.5 -23.7,49.7 -18.3,9.1 -27.8,-2.9 -32.5,-14.2 -2,-4.9 -3.4,-10.1 -4.2,-15.4 l 58.6,-34.7 c 1.2,4.8 1.8,9.7 1.8,14.6 z"
   id="path40" />
			</g>
		</g>
		
		
		
		
		
		
	</g>
</svg>
